<svg fill="#000000" xmlns="http://www.w3.org/2000/svg"  viewBox="0 0 128 128" width="64px" height="64px"><path d="M 64 1 C 62.93 1 61.950156 1.5702344 61.410156 2.4902344 L 26.410156 62.490234 C 26.000156 63.190234 25.899375 64.019062 26.109375 64.789062 C 26.319375 65.569063 26.839062 66.229141 27.539062 66.619141 L 38.699219 72.859375 C 40.149219 73.669375 41.969297 73.149219 42.779297 71.699219 C 43.589297 70.249219 43.069141 68.429141 41.619141 67.619141 L 33.130859 62.869141 L 61 15.099609 L 61 71.560547 C 61 73.220547 62.34 74.560547 64 74.560547 C 65.66 74.560547 67 73.220547 67 71.560547 L 67 15.099609 L 94.869141 62.880859 L 86.369141 67.630859 C 84.919141 68.430859 84.410703 70.259219 85.220703 71.699219 C 85.770703 72.679219 86.789844 73.240234 87.839844 73.240234 C 88.339844 73.240234 88.840781 73.119375 89.300781 72.859375 L 100.4707 66.619141 C 101.1707 66.229141 101.69039 65.569063 101.90039 64.789062 C 102.11039 64.009062 101.99961 63.180234 101.59961 62.490234 L 66.599609 2.4902344 C 66.049609 1.5702344 65.07 1 64 1 z M 23.488281 46.173828 C 23.289512 46.192051 23.089375 46.229062 22.890625 46.289062 C 19.470625 47.319063 16.379453 48.48 13.689453 49.75 C 12.189453 50.46 11.549766 52.240234 12.259766 53.740234 C 12.769766 54.830234 13.850469 55.460938 14.980469 55.460938 C 15.410469 55.460938 15.839766 55.369922 16.259766 55.169922 C 18.679766 54.029922 21.490859 52.969297 24.630859 52.029297 C 26.210859 51.559297 27.110859 49.890781 26.630859 48.300781 C 26.210859 46.909531 24.879668 46.04627 23.488281 46.173828 z M 104.50586 46.173828 C 103.11926 46.04627 101.77937 46.909531 101.35938 48.300781 C 100.87937 49.890781 101.77914 51.559062 103.36914 52.039062 C 114.24914 55.309063 121 59.9 121 64 C 121 67.78 115.05047 72.100781 105.48047 75.300781 C 94.440469 78.970781 79.71 81 64 81 C 48.29 81 33.559531 78.970781 22.519531 75.300781 C 12.949531 72.100781 7 67.78 7 64 C 7 62.34 5.66 61 4 61 C 2.34 61 1 62.34 1 64 C 1 78.94 33.46 87 64 87 C 94.54 87 127 78.94 127 64 C 127 56.84 119.21961 50.549062 105.09961 46.289062 C 104.90211 46.229062 104.70395 46.192051 104.50586 46.173828 z M 47.433594 92.269531 C 46.858145 92.231328 46.266719 92.358672 45.730469 92.669922 C 44.300469 93.499922 43.820391 95.339531 44.650391 96.769531 L 61.419922 125.50977 C 61.949922 126.42977 62.93 127 64 127 C 65.07 127 66.049844 126.42977 66.589844 125.50977 L 83.359375 96.769531 C 84.189375 95.339531 83.709297 93.499922 82.279297 92.669922 C 80.849297 91.839922 79.009687 92.32 78.179688 93.75 L 64 118.05078 L 49.830078 93.75 C 49.305078 92.85625 48.392676 92.333203 47.433594 92.269531 z"/></svg>