<svg width="184" height="141" viewBox="0 0 184 141" fill="none" xmlns="http://www.w3.org/2000/svg">
<path d="M19.285 49.3811L5.49 43.9934C5.49 43.9934 33.969 12.1 73.99 14.513L62.635 2.22366C62.635 2.22366 90.04 -9.01799 115.283 19.6674C128.553 34.7467 143.908 52.4737 153.557 72.5077L168.281 72.3829L162.251 85.9663L183.874 99.3152L161.777 97.0719C163.155 104.471 163.421 112.034 162.566 119.511C161.683 126.991 157.928 133.835 152.094 138.598C152.094 138.598 134.743 103.449 134.696 97.9443L134.813 111.705C134.813 111.705 120.959 99.4371 120.889 91.1807L113.471 100.877L109.593 85.7717L63.475 101.301L70.87 88.8526L42.157 93.2246L53.278 77.9923C53.278 77.9923 20.932 96.1568 19.811 111.304C18.689 126.452 9.29902 140.875 9.29902 140.875C9.29902 140.875 -16.787 70.3294 19.285 49.3811Z" fill="#D8DB4F"/>
</svg>
